<mxfile host="app.diagrams.net" modified="2022-02-10T10:51:26.508Z" agent="5.0 (Windows NT 10.0; Win64; x64) AppleWebKit/537.36 (KHTML, like Gecko) Chrome/98.0.4758.82 Safari/537.36" etag="UZZB0M8JYDp93AcMCwWQ" version="16.5.5" type="github">
  <diagram id="C5RBs43oDa-KdzZeNtuy" name="Page-1">
    <mxGraphModel dx="1298" dy="1521" grid="0" gridSize="10" guides="1" tooltips="1" connect="1" arrows="1" fold="1" page="1" pageScale="1" pageWidth="1169" pageHeight="827" background="#E6E6E6" math="0" shadow="0">
      <root>
        <mxCell id="WIyWlLk6GJQsqaUBKTNV-0" />
        <mxCell id="WIyWlLk6GJQsqaUBKTNV-1" parent="WIyWlLk6GJQsqaUBKTNV-0" />
        <mxCell id="ZGS5r5O1rVqSmJZZ7aWP-0" value="CONTEXTE DU SYSTEME" style="swimlane;fillColor=#647687;strokeColor=#314354;fontColor=#ffffff;" vertex="1" parent="WIyWlLk6GJQsqaUBKTNV-1">
          <mxGeometry x="19" y="-740" width="790" height="580" as="geometry" />
        </mxCell>
        <mxCell id="ZGS5r5O1rVqSmJZZ7aWP-2" value="SYSTEME AUTOMATIQUE DE COMPTAGE ET DE RENDU DE LA MONAIE" style="rounded=1;whiteSpace=wrap;html=1;fillColor=#f8cecc;strokeColor=#b85450;" vertex="1" parent="ZGS5r5O1rVqSmJZZ7aWP-0">
          <mxGeometry x="185" y="280" width="420" height="30" as="geometry" />
        </mxCell>
        <mxCell id="ZGS5r5O1rVqSmJZZ7aWP-8" style="edgeStyle=orthogonalEdgeStyle;rounded=0;orthogonalLoop=1;jettySize=auto;html=1;" edge="1" parent="ZGS5r5O1rVqSmJZZ7aWP-0" source="ZGS5r5O1rVqSmJZZ7aWP-5">
          <mxGeometry relative="1" as="geometry">
            <mxPoint x="339" y="278" as="targetPoint" />
          </mxGeometry>
        </mxCell>
        <mxCell id="ZGS5r5O1rVqSmJZZ7aWP-5" value="CAISSIERE" style="shape=umlActor;verticalLabelPosition=bottom;verticalAlign=top;html=1;outlineConnect=0;" vertex="1" parent="ZGS5r5O1rVqSmJZZ7aWP-0">
          <mxGeometry x="170" y="70" width="40" height="74" as="geometry" />
        </mxCell>
        <mxCell id="ZGS5r5O1rVqSmJZZ7aWP-9" style="edgeStyle=orthogonalEdgeStyle;rounded=0;orthogonalLoop=1;jettySize=auto;html=1;" edge="1" parent="ZGS5r5O1rVqSmJZZ7aWP-0" source="ZGS5r5O1rVqSmJZZ7aWP-6">
          <mxGeometry relative="1" as="geometry">
            <mxPoint x="461" y="279" as="targetPoint" />
          </mxGeometry>
        </mxCell>
        <mxCell id="ZGS5r5O1rVqSmJZZ7aWP-6" value="CLIENT" style="shape=umlActor;verticalLabelPosition=bottom;verticalAlign=top;html=1;outlineConnect=0;" vertex="1" parent="ZGS5r5O1rVqSmJZZ7aWP-0">
          <mxGeometry x="630" y="70" width="40" height="76" as="geometry" />
        </mxCell>
        <mxCell id="ZGS5r5O1rVqSmJZZ7aWP-31" style="edgeStyle=orthogonalEdgeStyle;rounded=0;orthogonalLoop=1;jettySize=auto;html=1;entryX=0;entryY=0.5;entryDx=0;entryDy=0;" edge="1" parent="ZGS5r5O1rVqSmJZZ7aWP-0" source="ZGS5r5O1rVqSmJZZ7aWP-16" target="ZGS5r5O1rVqSmJZZ7aWP-2">
          <mxGeometry relative="1" as="geometry" />
        </mxCell>
        <mxCell id="ZGS5r5O1rVqSmJZZ7aWP-16" value="PETITES SURFACES&amp;nbsp;&lt;br&gt;EX : BOULANGERIE, EPICERIE, ETC." style="rounded=0;whiteSpace=wrap;html=1;fillColor=#d5e8d4;strokeColor=#82b366;" vertex="1" parent="ZGS5r5O1rVqSmJZZ7aWP-0">
          <mxGeometry x="7" y="265" width="140" height="60" as="geometry" />
        </mxCell>
        <mxCell id="ZGS5r5O1rVqSmJZZ7aWP-32" style="edgeStyle=orthogonalEdgeStyle;rounded=0;orthogonalLoop=1;jettySize=auto;html=1;entryX=0.03;entryY=1.035;entryDx=0;entryDy=0;entryPerimeter=0;" edge="1" parent="ZGS5r5O1rVqSmJZZ7aWP-0" source="ZGS5r5O1rVqSmJZZ7aWP-18" target="ZGS5r5O1rVqSmJZZ7aWP-2">
          <mxGeometry relative="1" as="geometry" />
        </mxCell>
        <mxCell id="ZGS5r5O1rVqSmJZZ7aWP-18" value="LE COMPTOIR&lt;br&gt;" style="rounded=0;whiteSpace=wrap;html=1;fillColor=#d5e8d4;strokeColor=#82b366;" vertex="1" parent="ZGS5r5O1rVqSmJZZ7aWP-0">
          <mxGeometry x="11" y="353" width="140" height="26" as="geometry" />
        </mxCell>
        <mxCell id="ZGS5r5O1rVqSmJZZ7aWP-34" style="edgeStyle=orthogonalEdgeStyle;rounded=0;orthogonalLoop=1;jettySize=auto;html=1;entryX=0.226;entryY=1.009;entryDx=0;entryDy=0;entryPerimeter=0;" edge="1" parent="ZGS5r5O1rVqSmJZZ7aWP-0" source="ZGS5r5O1rVqSmJZZ7aWP-33" target="ZGS5r5O1rVqSmJZZ7aWP-2">
          <mxGeometry relative="1" as="geometry" />
        </mxCell>
        <mxCell id="ZGS5r5O1rVqSmJZZ7aWP-33" value="LES PIECES" style="rounded=0;whiteSpace=wrap;html=1;fillColor=#d5e8d4;strokeColor=#82b366;" vertex="1" parent="ZGS5r5O1rVqSmJZZ7aWP-0">
          <mxGeometry x="210" y="392" width="140" height="26" as="geometry" />
        </mxCell>
        <mxCell id="ZGS5r5O1rVqSmJZZ7aWP-36" style="edgeStyle=orthogonalEdgeStyle;rounded=0;orthogonalLoop=1;jettySize=auto;html=1;entryX=0.602;entryY=1.009;entryDx=0;entryDy=0;entryPerimeter=0;" edge="1" parent="ZGS5r5O1rVqSmJZZ7aWP-0" source="ZGS5r5O1rVqSmJZZ7aWP-35" target="ZGS5r5O1rVqSmJZZ7aWP-2">
          <mxGeometry relative="1" as="geometry" />
        </mxCell>
        <mxCell id="ZGS5r5O1rVqSmJZZ7aWP-35" value="POUSSIERE ET FARINE" style="rounded=0;whiteSpace=wrap;html=1;fillColor=#d5e8d4;strokeColor=#82b366;" vertex="1" parent="ZGS5r5O1rVqSmJZZ7aWP-0">
          <mxGeometry x="368" y="392" width="140" height="26" as="geometry" />
        </mxCell>
        <mxCell id="ZGS5r5O1rVqSmJZZ7aWP-38" style="edgeStyle=orthogonalEdgeStyle;rounded=0;orthogonalLoop=1;jettySize=auto;html=1;" edge="1" parent="ZGS5r5O1rVqSmJZZ7aWP-0" source="ZGS5r5O1rVqSmJZZ7aWP-37">
          <mxGeometry relative="1" as="geometry">
            <mxPoint x="547" y="310" as="targetPoint" />
          </mxGeometry>
        </mxCell>
        <mxCell id="ZGS5r5O1rVqSmJZZ7aWP-37" value="ALIMENTATION" style="rounded=0;whiteSpace=wrap;html=1;fillColor=#d5e8d4;strokeColor=#82b366;" vertex="1" parent="ZGS5r5O1rVqSmJZZ7aWP-0">
          <mxGeometry x="546" y="392" width="140" height="26" as="geometry" />
        </mxCell>
      </root>
    </mxGraphModel>
  </diagram>
</mxfile>
